<svg xmlns="http://www.w3.org/2000/svg" viewBox="0 0 204.51 205.96"><defs><style>.cls-1{fill:#fff;}.cls-2{font-size:42px;fill:#292f33;font-family:Baskerville-SemiBold, Baskerville;font-weight:700;}</style></defs><title>Asset 5</title><g id="Layer_2" data-name="Layer 2"><g id="Layer_1-2" data-name="Layer 1"><path class="cls-1" d="M95,118.33a26.51,26.51,0,1,1,26.51-26.51A26.54,26.54,0,0,1,95,118.33Z"/><path d="M95,65.82a26,26,0,1,1-26,26,26,26,0,0,1,26-26m0-1a27,27,0,1,0,27,27,27,27,0,0,0-27-27Z"/><path class="cls-1" d="M26.13,142.64a14.35,14.35,0,1,1,14.35-14.35A14.37,14.37,0,0,1,26.13,142.64Z"/><path d="M26.13,114.43a13.85,13.85,0,1,1-13.85,13.85,13.87,13.87,0,0,1,13.85-13.85m0-1A14.85,14.85,0,1,0,41,128.28a14.85,14.85,0,0,0-14.85-14.85Z"/><path class="cls-1" d="M67.32,41.36A20.43,20.43,0,1,1,87.75,20.93,20.45,20.45,0,0,1,67.32,41.36Z"/><path d="M67.32,1A19.93,19.93,0,1,1,47.39,20.93,20,20,0,0,1,67.32,1m0-1A20.93,20.93,0,1,0,88.25,20.93,20.93,20.93,0,0,0,67.32,0Z"/><path class="cls-1" d="M174,118.33a21.78,21.78,0,1,1,21.78-21.78A21.81,21.81,0,0,1,174,118.33Z"/><path d="M174,75.27a21.28,21.28,0,1,1-21.28,21.28A21.31,21.31,0,0,1,174,75.27m0-1a22.28,22.28,0,1,0,22.28,22.28A22.28,22.28,0,0,0,174,74.27Z"/><polygon class="cls-1" points="122.35 94.15 122.47 92.38 141.84 94.56 122.35 94.15"/><path d="M122.94,92.94l7.92.89-8-.17,0-.72M122,91.82l-.19,2.81,31,.66L122,91.82Z"/><polygon class="cls-1" points="78.35 49.99 87.05 67.44 85.43 68.15 78.35 49.99"/><path d="M82.81,60.05l3.56,7.13-.66.29-2.9-7.43M73.89,39.93l11.27,28.9,2.58-1.14L73.89,39.93Z"/><polygon class="cls-1" points="70.36 102.26 70.96 103.28 53.41 112.73 70.36 102.26"/><path d="M70.19,103l.08.13L68,104.31,70.19,103m.35-1.39-31.7,19.58,32.81-17.66-1.11-1.92Z"/><text class="cls-2" transform="translate(0.12 190.8) rotate(-0.19)">Time Link</text></g></g></svg>