<svg xmlns="http://www.w3.org/2000/svg" viewBox="0 0 185 143.14"><defs><style>.cls-1{fill:#fff;}</style></defs><title>Asset 3</title><g id="Layer_2" data-name="Layer 2"><g id="Layer_1-2" data-name="Layer 1"><path class="cls-1" d="M83.72,118.33a26.51,26.51,0,1,1,26.51-26.51A26.54,26.54,0,0,1,83.72,118.33Z"/><path d="M83.72,65.82a26,26,0,1,1-26,26,26,26,0,0,1,26-26m0-1a27,27,0,1,0,27,27,27,27,0,0,0-27-27Z"/><path class="cls-1" d="M14.85,142.64a14.35,14.35,0,1,1,14.35-14.35A14.37,14.37,0,0,1,14.85,142.64Z"/><path d="M14.85,114.43A13.85,13.85,0,1,1,1,128.28a13.87,13.87,0,0,1,13.85-13.85m0-1a14.85,14.85,0,1,0,14.85,14.85,14.85,14.85,0,0,0-14.85-14.85Z"/><path class="cls-1" d="M56,41.36A20.43,20.43,0,1,1,76.47,20.93,20.45,20.45,0,0,1,56,41.36Z"/><path d="M56,1A19.93,19.93,0,1,1,36.11,20.93,20,20,0,0,1,56,1m0-1A20.93,20.93,0,1,0,77,20.93,20.93,20.93,0,0,0,56,0Z"/><path class="cls-1" d="M162.72,118.33A21.78,21.78,0,1,1,184.5,96.55,21.81,21.81,0,0,1,162.72,118.33Z"/><path d="M162.72,75.27a21.28,21.28,0,1,1-21.28,21.28,21.31,21.31,0,0,1,21.28-21.28m0-1A22.28,22.28,0,1,0,185,96.55a22.28,22.28,0,0,0-22.28-22.28Z"/><polygon class="cls-1" points="111.08 94.15 111.19 92.38 130.56 94.56 111.08 94.15"/><path d="M111.66,92.94l7.92.89-8-.17,0-.72m-.93-1.11-.19,2.81,31,.66-30.82-3.47Z"/><polygon class="cls-1" points="67.07 49.99 75.77 67.44 74.15 68.15 67.07 49.99"/><path d="M71.53,60.05l3.56,7.13-.66.29-2.9-7.43M62.61,39.93l11.27,28.9,2.58-1.14L62.61,39.93Z"/><polygon class="cls-1" points="59.09 102.26 59.68 103.28 42.13 112.73 59.09 102.26"/><path d="M58.91,103l.08.13-2.28,1.23L58.91,103m.35-1.39-31.7,19.58,32.81-17.66-1.11-1.92Z"/></g></g></svg>