<?xml version="1.0" encoding="utf-8"?>
<!-- Generator: Adobe Illustrator 24.0.0, SVG Export Plug-In . SVG Version: 6.00 Build 0)  -->
<svg version="1.1" id="Layer_1" xmlns="http://www.w3.org/2000/svg" xmlns:xlink="http://www.w3.org/1999/xlink" x="0px" y="0px"
	 viewBox="0 0 209 217" style="enable-background:new 0 0 209 217;" xml:space="preserve">
<path d="M77.1,43c-0.1,0.3,1.9,5.7,4.5,12c4.1,10.5,4.3,11.6,2.8,12.5c-4,2.3-8.6,7.1-11.1,11.2c-2.9,5-4.2,15.3-2.5,20.2l1.1,3
	l-14.4,8.8c-7.9,4.8-14.3,8.9-14.1,9c0.1,0.2,6.8-3.2,14.8-7.5l14.5-7.8l2.1,3.2c2.8,4.3,9.8,9,15.6,10.5
	c13.5,3.4,28.1-4.5,32.2-17.5l1.8-5.6l12.5-0.1l12.6-0.2l-12.6-1.5l-12.7-1.5l-0.6-4.5c-1.2-8.5-7.4-16.5-15.9-20.2
	c-3.7-1.6-6.5-2.1-11.9-1.9l-7.1,0.2l-5.8-11.4C79.7,47.6,77.1,42.7,77.1,43z M109.4,69.4c6,3.5,10.3,9,12.2,15.5
	c4.8,16.3-7.4,32.5-24.6,32.5c-13,0-23.5-9.2-25.6-22.2c-1.7-10.5,6.8-25,15.6-26.7c1.1-0.2,2.8-0.9,3.7-1.5
	C93.8,65.1,104.4,66.5,109.4,69.4z"/>
<path d="M118,176.8c0,0.4,0.9,1.3,2,2c1.8,1.1,2,2.3,2,11.2c0,8.9-0.2,10.1-2,11.2c-1.1,0.7-2,1.6-2,2c0,0.5,5.6,0.8,12.5,0.8H143
	v-4.5c0-5-1.1-5.8-2.8-2c-1.4,2.9-5.6,4.9-8.9,4c-2.2-0.5-2.3-0.9-2.3-11.6c0-10.2,0.2-11.1,2-11.6c1.1-0.3,1.7-0.9,1.4-1.4
	C131.8,175.8,118,175.7,118,176.8z"/>
<path d="M148.4,177.4c-1.1,2.8,0.1,5.1,2.5,5.1c3.2,0,4.9-2.8,3.2-4.9C152.4,175.6,149.1,175.5,148.4,177.4z"/>
<path d="M186.8,176.7c-3.2,0.5-3.4,0.9-1.3,2.9c1.1,1.2,1.5,4,1.5,11.5c0,7.9-0.3,10.1-1.5,10.5c-3.2,1.3-1.3,2.4,4,2.4
	c5.9,0,6.1-0.1,4.3-2.9c-0.6-1-0.8-2.6-0.4-3.6c0.6-1.7,0.7-1.7,2.7,0.1c1.4,1.2,1.8,2.5,1.4,4.1c-0.5,2.2-0.3,2.3,5,2.3
	c3,0,5.5-0.3,5.5-0.6c0-0.3-1.8-2.6-4-5.1s-4-5-4-5.5s1.3-1.7,3-2.6c4.1-2.4,3.8-3.2-1.5-3.2c-4.3,0-5.8,1.1-3.4,2.6
	c0.8,0.4,0.4,1.3-1.2,2.5c-1.3,1-2.7,1.9-3.1,1.9c-0.5,0-0.8-4.1-0.8-9C193,175.2,193.4,175.7,186.8,176.7z"/>
<path d="M1,181c0,4.6,1.1,5.2,2.8,1.5c0.9-1.9,1.9-2.5,4.2-2.5h3v11.1c0,10.2-0.2,11.1-2,11.6c-4.5,1.2-1.5,2.3,6,2.3
	c4.7,0,8-0.4,8-1c0-0.6-0.7-1-1.5-1c-0.8,0-1.9-0.9-2.5-1.9c-1.3-2.5-1.3-20.8,0-21.6c1.8-1.1,5.8,0.7,6.9,3.1
	c1.6,3.6,3.1,2.9,3.1-1.6v-4H15H1V181z"/>
<path d="M34.4,178.4c-1.1,2.8,0.1,5.1,2.5,5.1c3.2,0,4.9-2.8,3.2-4.9C38.4,176.6,35.1,176.5,34.4,178.4z"/>
<path d="M147.3,187.7c-2.6,0.5-3,1.8-0.8,2.7c1.1,0.4,1.5,2,1.5,5.6c0,3.6-0.4,5.2-1.5,5.6c-3.3,1.3-1.2,2.4,4.5,2.4
	s7.8-1.1,4.5-2.4c-1.1-0.4-1.5-2.2-1.5-7.6C154,186.4,154,186.4,147.3,187.7z"/>
<path d="M163.5,187.7c-4,0.6-5.5,2.1-3.2,3.4c2.2,1.3,2.4,9.7,0.2,10.5c-3.2,1.3-1.3,2.4,4,2.4c5.1,0,6.9-1,4.5-2.5
	c-1.6-1-1.2-9.1,0.5-10.5c2.8-2.3,4.5-0.4,4.5,4.9c0,2.7-0.4,5.3-1,5.6c-2.4,1.5-0.6,2.5,4.5,2.5c5.3,0,7.2-1.1,4-2.4
	c-1.1-0.4-1.5-2.1-1.5-6.4c0-3.2-0.5-6.3-1.2-7c-1.6-1.6-7-1.5-8.7,0c-1.1,1-1.4,1-1.8,0c-0.3-0.6-0.8-1.1-1.1-1.1
	C166.8,187.2,165.2,187.5,163.5,187.7z"/>
<path d="M33.3,188.7c-2.6,0.5-3,1.8-0.8,2.7c2.1,0.8,2.1,10.4,0,11.2c-3.3,1.3-1.2,2.4,4.5,2.4s7.8-1.1,4.5-2.4
	c-1.1-0.4-1.5-2.2-1.5-7.6C40,187.4,40,187.4,33.3,188.7z"/>
<path d="M49.5,188.7c-4,0.6-5.5,2.1-3.2,3.4c2.2,1.3,2.4,9.7,0.2,10.5c-3.3,1.3-1.2,2.4,4.5,2.4s7.8-1.1,4.5-2.4
	c-1-0.4-1.5-1.9-1.5-4.9c0-4.8,1.3-6.7,4.7-6.7c2.1,0,2.3,0.4,2.3,5.4c0,3-0.4,5.8-1,6.1c-2.4,1.5-0.6,2.5,4.5,2.5
	c5.5,0,6.5-0.6,4.4-2.7c-0.5-0.5-0.9-3.2-0.7-5.9c0.3-4.7,0.4-4.9,3.3-4.9s3,0.1,3.3,5.3c0.2,4-0.1,5.4-1.2,5.8
	c-3.4,1.3-1.3,2.4,4.4,2.4c5.7,0,7.8-1.1,4.5-2.4c-1.1-0.4-1.5-2.1-1.5-6c0-3.6-0.5-6-1.6-7c-2-2-8.2-2.1-10.4-0.1
	c-1.5,1.4-1.8,1.4-3,0c-1.5-1.8-8.1-2-9.9-0.3c-1.1,1-1.4,1-1.8,0c-0.3-0.6-0.8-1.1-1.1-1.1C52.8,188.2,51.2,188.5,49.5,188.7z"/>
<path d="M89.5,190.5c-4.8,4.7-2.5,12.5,4,14.4c3.5,0.9,9.6-0.6,10.3-2.7c0.4-1.4-1.4-1.6-2.3-0.2c-0.9,1.4-4.8,1.3-6.3-0.2
	c-0.7-0.7-1.2-2.2-1.2-3.5c0-2.1,0.4-2.3,5.5-2.3c4.7,0,5.5-0.3,5.5-1.8C105,188.3,94.2,185.7,89.5,190.5z M98.8,192.3
	c0.3,1.2-0.3,1.7-2.2,1.7c-2.5,0-3.5-1.8-1.9-3.4C95.9,189.4,98.5,190.4,98.8,192.3z"/>
<ellipse cx="96.7" cy="91.1" rx="26.6" ry="27.3"/>
<circle cx="28.1" cy="128.1" r="14.9"/>
<circle cx="68.4" cy="22.8" r="19.7"/>
<circle cx="174.1" cy="95.1" r="22.3"/>
</svg>
